--------------------------------------------
 
http://www.imdb.com/title/tt2073016/?ref_=fn_al_tt_1

105 min  -  Drama  -  4 April 2012 (France)
7,1 Your rating:    -/10   Ratings: 7,1/10 from 607 users   Metascore: 63/100 

SUBTiTLES.......: Bulgarian

Language : French

Screens: 
http://imgsure.com/?p=911395 
http://imgsure.com/?p=384322

Format                           : AVI
Format/Info                      : Audio Video Interleave
File size                        : 701 MiB
Overall bit rate                 : 1 819 Kbps
Writing application              : VirtualDubMod 1.5.10.2 (build 2540/release)
Writing library                  : VirtualDubMod build 2540/release

Video
ID                               : 0
Format                           : MPEG-4 Visual
Format profile                   : Advanced Simple@L5
Format settings, BVOP            : 2
Format settings, QPel            : No
Format settings, GMC             : No warppoints
Format settings, Matrix          : Default (H.263)
Muxing mode                      : Packed bitstream
Codec ID                         : XVID
Codec ID/Hint                    : XviD
Bit rate                         : 1 362 Kbps
Width                            : 640 pixels
Height                           : 272 pixels
Display aspect ratio             : 2.35:1
Frame rate                       : 23.976 fps
Color space                      : YUV
Chroma subsampling               : 4:2:0
Bit depth                        : 8 bits
Scan type                        : Progressive
Compression mode                 : Lossy
Bits/(Pixel*Frame)               : 0.326
Stream size                      : 524 MiB (75%)
Writing library                  : XviD 64

Audio
ID                               : 1
Format                           : AC-3
Format/Info                      : Audio Coding 3
Mode extension                   : CM (complete main)
Codec ID                         : 2000
Bit rate mode                    : Constant
Bit rate                         : 448 Kbps
Channel(s)                       : 6 channels
Channel positions                : Front: L C R, Side: L R, LFE
Sampling rate                    : 48.0 KHz
Bit depth                        : 16 bits
Compression mode                 : Lossy
Stream size                      : 172 MiB (25%)
Alignment                        : Split accross interleaves
Interleave, duration             : 42 ms (1.00 video frame)
Interleave, preload duration     : 500 ms

--------------------------------------------

More at   
http://publichash.com/

--------------------------------------------	